<svg xmlns="http://www.w3.org/2000/svg" viewBox="-0.5 -1.5 164 164"><circle class="bg" cx="81.5" cy="80.5" r="79.0" fill="#FAF7F2"/><path class="fg" d="M81.5,3.5A77.0,77.0 0 0 0 81.5,157.5L81.5,142.5A62.0,62.0 0 0 1 81.5,18.5ZM67.67,126.67C68.00,126.33 68.00,126.11 68.00,80.94C68.00,30.39 68.11,34.70 66.86,35.56C66.41,35.88 66.02,36.00 65.48,36.00C64.90,36.00 64.57,36.12 64.07,36.50C63.55,36.89 63.25,36.99 62.57,37.00C61.90,37.00 61.59,37.10 61.07,37.50C60.71,37.77 60.26,37.99 60.07,38.00C59.88,38.00 59.43,38.22 59.07,38.50C58.71,38.77 58.26,38.99 58.07,39.00C57.88,39.00 57.43,39.22 57.07,39.50C56.71,39.77 56.26,39.99 56.07,40.00C55.88,40.00 55.43,40.22 55.07,40.50C54.71,40.77 54.26,40.99 54.06,41.00C53.66,41.00 52.94,41.57 51.43,43.04C50.82,43.64 50.31,44.00 50.08,44.00C49.25,44.00 42.00,51.19 42.00,52.01C42.00,52.41 41.78,52.73 41.00,53.51C40.23,54.28 40.00,54.62 40.00,55.00C40.00,55.31 39.81,55.70 39.50,56.06C39.22,56.38 39.00,56.82 39.00,57.06C39.00,57.30 38.78,57.74 38.50,58.06C37.77,58.89 37.85,59.25 39.00,60.48C40.17,61.72 40.26,62.17 39.50,62.97C39.18,63.31 39.00,63.67 39.00,63.99C39.00,64.30 38.82,64.68 38.50,65.03C38.07,65.50 38.00,65.70 38.00,66.53C38.00,67.35 37.93,67.55 37.50,68.03C37.20,68.35 37.00,68.76 37.00,69.03C37.00,69.30 36.80,69.70 36.50,70.03C36.07,70.50 36.00,70.70 36.00,71.53C36.00,72.35 35.93,72.55 35.50,73.03C35.20,73.35 35.00,73.76 35.00,74.03C35.00,74.30 34.80,74.70 34.50,75.03C34.07,75.50 34.00,75.70 34.00,76.53C34.00,77.35 33.93,77.55 33.50,78.03C33.02,78.55 33.00,78.65 33.00,80.03C33.00,81.41 32.97,81.52 32.50,82.06C31.78,82.88 31.85,83.31 32.83,84.23C33.59,84.94 33.72,85.00 34.52,85.00C35.90,85.00 36.00,85.17 36.00,87.52C36.00,89.63 36.16,89.99 37.08,90.00C37.26,90.01 37.71,90.23 38.07,90.50C38.60,90.91 38.89,91.00 39.60,91.00C40.47,91.00 40.47,91.00 42.73,93.24C44.53,95.01 45.00,95.57 45.00,95.92C45.00,96.18 45.21,96.61 45.50,96.94C45.80,97.28 46.00,97.70 46.00,97.97C46.00,98.24 46.20,98.64 46.50,98.97C46.93,99.45 47.00,99.65 47.00,100.47C47.00,101.30 47.07,101.50 47.50,101.98C48.01,102.53 48.01,102.53 47.96,106.04C47.90,110.76 48.12,110.70 44.53,107.04C42.99,105.46 41.63,104.17 41.51,104.17C41.39,104.17 41.00,104.46 40.65,104.81C39.76,105.70 39.70,107.09 40.50,107.97C40.82,108.32 41.00,108.70 41.00,109.01C41.00,109.42 41.69,110.19 45.70,114.21C50.98,119.49 51.54,120.00 52.08,120.00C52.28,120.00 52.63,120.18 52.85,120.40C53.76,121.30 54.72,122.00 55.06,122.00C55.26,122.01 55.71,122.23 56.07,122.50C56.43,122.78 56.88,123.00 57.07,123.00C57.26,123.01 57.71,123.23 58.07,123.50C58.43,123.78 58.88,124.00 59.07,124.00C59.26,124.01 59.71,124.23 60.07,124.50C60.59,124.90 60.90,125.00 61.57,125.00C62.25,125.01 62.55,125.11 63.07,125.50C63.60,125.91 63.89,126.00 64.59,126.00C65.30,126.00 65.57,126.09 66.08,126.50C66.82,127.09 67.21,127.13 67.67,126.67Z" fill="#1F4E79"/><path class="fg" d="M81.5,18.5A62.0,62.0 0 0 1 81.5,142.5ZM97.92,126.50C98.43,126.09 98.70,126.00 99.41,126.00C100.11,126.00 100.40,125.91 100.93,125.50C101.45,125.11 101.75,125.01 102.43,125.00C103.10,125.00 103.41,124.90 103.93,124.50C104.29,124.23 104.74,124.01 104.93,124.00C105.12,124.00 105.57,123.78 105.93,123.50C106.29,123.23 106.74,123.01 106.93,123.00C107.12,123.00 107.57,122.78 107.93,122.50C108.29,122.23 108.74,122.01 108.94,122.00C109.28,122.00 110.24,121.30 111.15,120.40C111.37,120.18 111.72,120.00 111.92,120.00C112.46,120.00 113.02,119.49 118.30,114.21C122.31,110.19 123.00,109.42 123.00,109.01C123.00,108.70 123.18,108.32 123.50,107.97C124.30,107.09 124.24,105.70 123.35,104.81C123.00,104.46 122.61,104.17 122.49,104.17C122.37,104.17 121.01,105.46 119.47,107.04C115.88,110.70 116.10,110.76 116.04,106.04C115.99,102.53 115.99,102.53 116.50,101.98C116.93,101.50 117.00,101.30 117.00,100.47C117.00,99.65 117.07,99.45 117.50,98.97C117.80,98.64 118.00,98.24 118.00,97.97C118.00,97.70 118.20,97.28 118.50,96.94C118.79,96.61 119.00,96.18 119.00,95.92C119.00,95.57 119.47,95.01 121.27,93.24C123.53,91.00 123.53,91.00 124.40,91.00C125.11,91.00 125.40,90.91 125.93,90.50C126.29,90.23 126.74,90.01 126.92,90.00C127.84,89.99 128.00,89.63 128.00,87.55C128.00,85.18 128.10,85.00 129.45,85.00C130.29,85.00 130.40,84.95 131.17,84.23C132.15,83.31 132.22,82.88 131.50,82.06C131.03,81.52 131.00,81.41 131.00,80.03C131.00,78.65 130.98,78.55 130.50,78.03C130.07,77.55 130.00,77.35 130.00,76.53C130.00,75.70 129.93,75.50 129.50,75.03C129.20,74.70 129.00,74.30 129.00,74.03C129.00,73.76 128.80,73.35 128.50,73.03C128.07,72.55 128.00,72.35 128.00,71.53C128.00,70.70 127.93,70.50 127.50,70.03C127.20,69.70 127.00,69.30 127.00,69.03C127.00,68.76 126.80,68.35 126.50,68.03C126.07,67.55 126.00,67.35 126.00,66.53C126.00,65.70 125.93,65.50 125.50,65.03C125.18,64.68 125.00,64.30 125.00,63.99C125.00,63.67 124.82,63.31 124.50,62.97C123.74,62.17 123.83,61.72 125.00,60.48C126.15,59.25 126.23,58.89 125.50,58.06C125.22,57.74 125.00,57.30 125.00,57.06C125.00,56.82 124.78,56.38 124.50,56.06C124.19,55.70 124.00,55.31 124.00,55.00C124.00,54.62 123.77,54.28 123.00,53.51C122.22,52.73 122.00,52.41 122.00,52.01C122.00,51.19 114.75,44.00 113.92,44.00C113.69,44.00 113.18,43.64 112.57,43.04C111.06,41.57 110.34,41.00 109.94,41.00C109.74,40.99 109.29,40.77 108.93,40.50C108.57,40.22 108.12,40.00 107.93,40.00C107.74,39.99 107.29,39.77 106.93,39.50C106.57,39.22 106.12,39.00 105.93,39.00C105.74,38.99 105.29,38.77 104.93,38.50C104.57,38.22 104.12,38.00 103.93,38.00C103.74,37.99 103.29,37.77 102.93,37.50C102.41,37.10 102.10,37.00 101.43,37.00C100.75,36.99 100.45,36.89 99.93,36.50C99.43,36.12 99.10,36.00 98.52,36.00C97.98,36.00 97.59,35.88 97.14,35.56C95.89,34.70 96.00,30.39 96.00,80.94C96.00,126.11 96.00,126.33 96.33,126.67C96.79,127.13 97.18,127.09 97.92,126.50Z" fill="#1F4E79" fill-rule="evenodd"/></svg>