<svg xmlns="http://www.w3.org/2000/svg" viewBox="-2 -2 168 250"><path d="M144.59,244.67C146.07,243.95 145.64,241.74 143.87,240.98C143.31,240.74 142.22,239.78 139.84,237.43C137.49,235.10 136.41,234.15 135.98,234.01C135.18,233.76 134.25,232.84 133.99,232.05C133.84,231.58 132.95,230.56 130.50,228.08C127.96,225.51 127.16,224.60 127.00,224.08C126.86,223.65 126.34,222.94 125.50,222.07C124.68,221.22 124.13,220.48 124.00,220.07C123.86,219.66 123.31,218.92 122.50,218.07C121.69,217.22 121.13,216.48 121.00,216.07C120.88,215.71 120.43,215.02 119.99,214.54C119.55,214.06 119.10,213.39 118.99,213.04C118.88,212.70 118.61,212.16 118.39,211.84C118.18,211.52 118.00,211.13 118.00,210.97C118.00,210.81 117.59,210.22 117.09,209.66C116.59,209.10 116.10,208.37 115.99,208.03C115.88,207.69 115.64,207.21 115.47,206.97C115.30,206.72 115.07,206.27 114.97,205.97C114.87,205.66 114.64,205.21 114.47,204.97C114.30,204.72 114.07,204.27 113.97,203.97C113.87,203.66 113.64,203.21 113.47,202.97C113.30,202.72 113.07,202.27 112.97,201.97C112.87,201.66 112.64,201.21 112.47,200.97C112.30,200.72 112.07,200.27 111.97,199.97C111.87,199.66 111.64,199.21 111.47,198.97C111.30,198.72 111.07,198.27 110.97,197.97C110.87,197.66 110.64,197.21 110.47,196.97C110.30,196.72 110.07,196.27 109.97,195.97C109.87,195.66 109.63,195.20 109.44,194.93C109.25,194.65 109.05,194.01 108.99,193.48C108.92,192.92 108.72,192.31 108.51,192.02C108.32,191.74 108.07,191.27 107.97,190.97C107.86,190.66 107.60,190.16 107.39,189.84C107.12,189.44 107.00,189.01 107.00,188.50C107.00,187.95 106.87,187.55 106.50,187.00C106.13,186.45 106.00,186.05 106.00,185.50C106.00,184.95 105.87,184.55 105.50,184.00C105.13,183.45 105.00,183.05 105.00,182.50C105.00,181.95 104.88,181.56 104.54,181.08C104.16,180.52 104.07,180.19 104.00,178.99C103.92,177.84 103.83,177.46 103.49,176.99C103.16,176.52 103.07,176.15 102.99,174.99C102.92,173.84 102.83,173.46 102.49,172.99C102.13,172.48 102.07,172.20 102.00,170.50C101.93,168.80 101.87,168.52 101.50,168.00C101.11,167.46 101.08,167.24 101.00,165.00C100.92,162.68 100.90,162.56 100.44,161.88C99.60,160.64 100.57,159.27 102.47,159.00C103.07,158.92 103.71,158.70 104.03,158.48C104.44,158.19 104.88,158.08 106.00,158.00C107.11,157.92 107.56,157.81 107.96,157.53C108.25,157.32 108.73,157.07 109.03,156.97C109.34,156.87 109.79,156.64 110.04,156.46C110.30,156.29 110.95,156.08 111.50,156.00C112.05,155.92 112.72,155.70 112.99,155.51C113.26,155.31 113.73,155.07 114.03,154.97C114.34,154.87 114.79,154.64 115.03,154.47C115.28,154.30 115.73,154.07 116.03,153.97C116.34,153.87 116.79,153.64 117.03,153.47C117.28,153.30 117.73,153.07 118.03,152.97C118.34,152.87 118.79,152.64 119.03,152.47C119.28,152.30 119.73,152.07 120.03,151.97C120.34,151.87 120.79,151.64 121.03,151.47C121.28,151.30 121.73,151.07 122.03,150.96C122.34,150.86 123.04,150.38 123.60,149.91C124.16,149.44 124.83,149.00 125.09,148.93C125.35,148.86 125.77,148.66 126.02,148.48C126.28,148.30 126.73,148.07 127.03,147.97C127.34,147.86 128.20,147.20 128.95,146.49C129.79,145.70 130.58,145.11 130.98,144.97C131.78,144.70 134.50,142.14 134.50,141.66C134.50,141.10 133.96,141.00 130.75,141.00C127.64,141.00 127.64,141.00 126.70,141.72C100.80,161.38 62.37,161.38 36.47,141.72C35.10,140.68 30.50,140.63 30.50,141.66C30.50,142.11 34.22,145.70 34.96,145.96C35.29,146.08 35.99,146.54 36.51,146.99C37.03,147.45 37.66,147.87 37.92,147.93C38.18,148.00 38.84,148.44 39.40,148.91C39.96,149.38 40.66,149.86 40.97,149.96C41.27,150.07 41.72,150.30 41.98,150.48C42.23,150.66 42.65,150.86 42.91,150.93C43.17,151.00 43.84,151.44 44.40,151.91C44.96,152.38 45.66,152.86 45.97,152.96C46.27,153.07 46.72,153.30 46.97,153.47C47.21,153.64 47.66,153.87 47.97,153.97C48.27,154.07 48.74,154.31 49.01,154.51C49.28,154.70 49.95,154.92 50.50,155.00C51.05,155.08 51.70,155.29 51.96,155.46C52.21,155.64 52.66,155.87 52.97,155.97C53.27,156.07 53.74,156.31 54.01,156.51C54.28,156.70 54.95,156.92 55.50,157.00C56.06,157.08 56.72,157.30 57.00,157.50C57.28,157.70 57.94,157.92 58.50,158.00C59.08,158.08 59.72,158.30 60.03,158.52C60.44,158.81 60.88,158.92 62.00,159.00C64.63,159.19 65.83,161.04 64.54,162.92C64.13,163.52 64.08,163.76 64.00,165.50C63.93,167.20 63.87,167.48 63.50,168.00C63.13,168.52 63.07,168.80 63.00,170.50C62.93,172.20 62.87,172.48 62.51,172.99C62.17,173.46 62.08,173.84 62.00,174.99C61.93,176.19 61.84,176.52 61.46,177.08C61.12,177.56 61.00,177.95 61.00,178.50C61.00,179.05 60.87,179.45 60.50,180.00C60.13,180.55 60.00,180.95 60.00,181.50C60.00,182.05 59.87,182.45 59.50,183.00C59.13,183.55 59.00,183.95 59.00,184.50C59.00,185.05 58.87,185.45 58.50,186.00C58.13,186.55 58.00,186.95 58.00,187.50C58.00,188.05 57.87,188.45 57.50,189.00C57.13,189.55 57.00,189.95 57.00,190.50C57.00,191.01 56.88,191.44 56.61,191.84C56.40,192.16 56.14,192.66 56.03,192.97C55.93,193.27 55.70,193.72 55.53,193.97C55.36,194.21 55.13,194.66 55.03,194.97C54.93,195.27 54.68,195.74 54.49,196.02C54.28,196.31 54.08,196.92 54.01,197.48C53.95,198.01 53.75,198.65 53.56,198.93C53.37,199.20 53.13,199.66 53.03,199.97C52.93,200.27 52.70,200.72 52.53,200.97C52.36,201.21 52.13,201.66 52.03,201.97C51.93,202.27 51.70,202.72 51.53,202.97C51.36,203.21 51.13,203.66 51.03,203.97C50.93,204.27 50.70,204.72 50.53,204.97C50.36,205.21 50.12,205.69 50.01,206.03C49.90,206.37 49.41,207.10 48.91,207.66C48.41,208.22 48.00,208.81 48.00,208.97C48.00,209.13 47.82,209.52 47.61,209.84C47.40,210.16 47.14,210.66 47.03,210.97C46.93,211.27 46.70,211.72 46.53,211.97C46.36,212.21 46.12,212.70 46.01,213.04C45.90,213.39 45.45,214.06 45.01,214.54C44.57,215.02 44.12,215.70 44.01,216.04C43.90,216.39 43.45,217.06 43.01,217.54C42.57,218.02 42.12,218.71 42.00,219.07C41.87,219.48 41.31,220.22 40.50,221.07C39.69,221.92 39.14,222.66 39.00,223.07C38.87,223.48 38.32,224.22 37.50,225.07C36.66,225.95 36.14,226.65 36.00,227.08C35.83,227.63 34.37,229.18 27.96,235.61C19.83,243.76 19.74,243.87 20.32,244.57C20.65,244.96 18.95,244.95 82.57,244.98C143.68,245.00 143.90,245.00 144.59,244.67Z" fill="none" stroke="#1F4E79" stroke-width="2" stroke-linejoin="round"/><path d="M142.24,242.74C142.58,242.40 142.46,242.22 141.70,241.91C140.70,241.49 126.26,226.94 126.00,226.08C125.85,225.60 125.29,224.90 124.00,223.58C122.76,222.30 122.15,221.54 122.00,221.08C121.88,220.72 121.43,220.02 120.99,219.54C120.55,219.06 120.10,218.39 119.99,218.04C119.88,217.70 119.43,217.02 118.99,216.54C118.55,216.06 118.10,215.39 117.99,215.04C117.88,214.70 117.43,214.02 116.99,213.54C116.55,213.06 116.10,212.39 115.99,212.04C115.88,211.70 115.61,211.16 115.39,210.84C115.18,210.52 115.00,210.13 115.00,209.97C115.00,209.81 114.59,209.22 114.09,208.66C113.59,208.10 113.10,207.37 112.99,207.03C112.88,206.69 112.64,206.21 112.47,205.97C112.30,205.72 112.07,205.27 111.97,204.97C111.87,204.66 111.64,204.21 111.47,203.97C111.30,203.72 111.07,203.27 110.97,202.97C110.87,202.66 110.64,202.21 110.47,201.97C110.30,201.72 110.07,201.27 109.97,200.97C109.87,200.66 109.64,200.21 109.47,199.97C109.30,199.72 109.07,199.27 108.97,198.97C108.87,198.66 108.63,198.20 108.44,197.93C108.25,197.65 108.05,197.01 107.99,196.48C107.92,195.92 107.72,195.31 107.51,195.02C107.32,194.74 107.07,194.27 106.97,193.97C106.86,193.66 106.60,193.16 106.39,192.84C106.12,192.44 106.00,192.01 106.00,191.50C106.00,190.95 105.87,190.55 105.50,190.00C105.13,189.45 105.00,189.05 105.00,188.50C105.00,187.95 104.87,187.55 104.50,187.00C104.13,186.45 104.00,186.05 104.00,185.50C104.00,184.95 103.87,184.55 103.50,184.00C103.13,183.45 103.00,183.05 103.00,182.50C103.00,181.95 102.87,181.55 102.50,181.00C102.13,180.45 102.00,180.05 102.00,179.50C102.00,178.95 101.88,178.56 101.54,178.08C101.12,177.48 101.08,177.25 101.00,175.50C100.93,173.80 100.87,173.52 100.50,173.00C100.16,172.52 100.07,172.16 99.99,170.99C99.92,169.84 99.83,169.46 99.49,168.99C99.11,168.46 99.08,168.23 99.00,166.00C98.92,163.70 98.89,163.55 98.46,162.92C98.03,162.30 98.00,162.14 98.00,160.54C98.00,158.00 96.82,157.21 94.98,158.52C94.42,158.92 94.40,158.92 88.96,159.00C83.50,159.08 83.50,159.08 82.79,159.79C82.08,160.50 82.08,160.50 82.04,201.34C82.00,242.18 82.00,242.18 82.41,242.59C82.94,243.12 141.71,243.26 142.24,242.74Z" fill="#1F4E79"/><circle cx="81.5" cy="80.5" r="79.0" fill="none" stroke="#1F4E79" stroke-width="2"/><path d="M81.5,3.5A77.0,77.0 0 0 0 81.5,157.5L81.5,142.5A62.0,62.0 0 0 1 81.5,18.5ZM67.67,126.67C68.00,126.33 68.00,126.11 68.00,80.94C68.00,30.39 68.11,34.70 66.86,35.56C66.41,35.88 66.02,36.00 65.48,36.00C64.90,36.00 64.57,36.12 64.07,36.50C63.55,36.89 63.25,36.99 62.57,37.00C61.90,37.00 61.59,37.10 61.07,37.50C60.71,37.77 60.26,37.99 60.07,38.00C59.88,38.00 59.43,38.22 59.07,38.50C58.71,38.77 58.26,38.99 58.07,39.00C57.88,39.00 57.43,39.22 57.07,39.50C56.71,39.77 56.26,39.99 56.07,40.00C55.88,40.00 55.43,40.22 55.07,40.50C54.71,40.77 54.26,40.99 54.06,41.00C53.66,41.00 52.94,41.57 51.43,43.04C50.82,43.64 50.31,44.00 50.08,44.00C49.25,44.00 42.00,51.19 42.00,52.01C42.00,52.41 41.78,52.73 41.00,53.51C40.23,54.28 40.00,54.62 40.00,55.00C40.00,55.31 39.81,55.70 39.50,56.06C39.22,56.38 39.00,56.82 39.00,57.06C39.00,57.30 38.78,57.74 38.50,58.06C37.77,58.89 37.85,59.25 39.00,60.48C40.17,61.72 40.26,62.17 39.50,62.97C39.18,63.31 39.00,63.67 39.00,63.99C39.00,64.30 38.82,64.68 38.50,65.03C38.07,65.50 38.00,65.70 38.00,66.53C38.00,67.35 37.93,67.55 37.50,68.03C37.20,68.35 37.00,68.76 37.00,69.03C37.00,69.30 36.80,69.70 36.50,70.03C36.07,70.50 36.00,70.70 36.00,71.53C36.00,72.35 35.93,72.55 35.50,73.03C35.20,73.35 35.00,73.76 35.00,74.03C35.00,74.30 34.80,74.70 34.50,75.03C34.07,75.50 34.00,75.70 34.00,76.53C34.00,77.35 33.93,77.55 33.50,78.03C33.02,78.55 33.00,78.65 33.00,80.03C33.00,81.41 32.97,81.52 32.50,82.06C31.78,82.88 31.85,83.31 32.83,84.23C33.59,84.94 33.72,85.00 34.52,85.00C35.90,85.00 36.00,85.17 36.00,87.52C36.00,89.63 36.16,89.99 37.08,90.00C37.26,90.01 37.71,90.23 38.07,90.50C38.60,90.91 38.89,91.00 39.60,91.00C40.47,91.00 40.47,91.00 42.73,93.24C44.53,95.01 45.00,95.57 45.00,95.92C45.00,96.18 45.21,96.61 45.50,96.94C45.80,97.28 46.00,97.70 46.00,97.97C46.00,98.24 46.20,98.64 46.50,98.97C46.93,99.45 47.00,99.65 47.00,100.47C47.00,101.30 47.07,101.50 47.50,101.98C48.01,102.53 48.01,102.53 47.96,106.04C47.90,110.76 48.12,110.70 44.53,107.04C42.99,105.46 41.63,104.17 41.51,104.17C41.39,104.17 41.00,104.46 40.65,104.81C39.76,105.70 39.70,107.09 40.50,107.97C40.82,108.32 41.00,108.70 41.00,109.01C41.00,109.42 41.69,110.19 45.70,114.21C50.98,119.49 51.54,120.00 52.08,120.00C52.28,120.00 52.63,120.18 52.85,120.40C53.76,121.30 54.72,122.00 55.06,122.00C55.26,122.01 55.71,122.23 56.07,122.50C56.43,122.78 56.88,123.00 57.07,123.00C57.26,123.01 57.71,123.23 58.07,123.50C58.43,123.78 58.88,124.00 59.07,124.00C59.26,124.01 59.71,124.23 60.07,124.50C60.59,124.90 60.90,125.00 61.57,125.00C62.25,125.01 62.55,125.11 63.07,125.50C63.60,125.91 63.89,126.00 64.59,126.00C65.30,126.00 65.57,126.09 66.08,126.50C66.82,127.09 67.21,127.13 67.67,126.67Z" fill="#1F4E79"/><path d="M81.5,18.5A62.0,62.0 0 0 1 81.5,142.5ZM97.92,126.50C98.43,126.09 98.70,126.00 99.41,126.00C100.11,126.00 100.40,125.91 100.93,125.50C101.45,125.11 101.75,125.01 102.43,125.00C103.10,125.00 103.41,124.90 103.93,124.50C104.29,124.23 104.74,124.01 104.93,124.00C105.12,124.00 105.57,123.78 105.93,123.50C106.29,123.23 106.74,123.01 106.93,123.00C107.12,123.00 107.57,122.78 107.93,122.50C108.29,122.23 108.74,122.01 108.94,122.00C109.28,122.00 110.24,121.30 111.15,120.40C111.37,120.18 111.72,120.00 111.92,120.00C112.46,120.00 113.02,119.49 118.30,114.21C122.31,110.19 123.00,109.42 123.00,109.01C123.00,108.70 123.18,108.32 123.50,107.97C124.30,107.09 124.24,105.70 123.35,104.81C123.00,104.46 122.61,104.17 122.49,104.17C122.37,104.17 121.01,105.46 119.47,107.04C115.88,110.70 116.10,110.76 116.04,106.04C115.99,102.53 115.99,102.53 116.50,101.98C116.93,101.50 117.00,101.30 117.00,100.47C117.00,99.65 117.07,99.45 117.50,98.97C117.80,98.64 118.00,98.24 118.00,97.97C118.00,97.70 118.20,97.28 118.50,96.94C118.79,96.61 119.00,96.18 119.00,95.92C119.00,95.57 119.47,95.01 121.27,93.24C123.53,91.00 123.53,91.00 124.40,91.00C125.11,91.00 125.40,90.91 125.93,90.50C126.29,90.23 126.74,90.01 126.92,90.00C127.84,89.99 128.00,89.63 128.00,87.55C128.00,85.18 128.10,85.00 129.45,85.00C130.29,85.00 130.40,84.95 131.17,84.23C132.15,83.31 132.22,82.88 131.50,82.06C131.03,81.52 131.00,81.41 131.00,80.03C131.00,78.65 130.98,78.55 130.50,78.03C130.07,77.55 130.00,77.35 130.00,76.53C130.00,75.70 129.93,75.50 129.50,75.03C129.20,74.70 129.00,74.30 129.00,74.03C129.00,73.76 128.80,73.35 128.50,73.03C128.07,72.55 128.00,72.35 128.00,71.53C128.00,70.70 127.93,70.50 127.50,70.03C127.20,69.70 127.00,69.30 127.00,69.03C127.00,68.76 126.80,68.35 126.50,68.03C126.07,67.55 126.00,67.35 126.00,66.53C126.00,65.70 125.93,65.50 125.50,65.03C125.18,64.68 125.00,64.30 125.00,63.99C125.00,63.67 124.82,63.31 124.50,62.97C123.74,62.17 123.83,61.72 125.00,60.48C126.15,59.25 126.23,58.89 125.50,58.06C125.22,57.74 125.00,57.30 125.00,57.06C125.00,56.82 124.78,56.38 124.50,56.06C124.19,55.70 124.00,55.31 124.00,55.00C124.00,54.62 123.77,54.28 123.00,53.51C122.22,52.73 122.00,52.41 122.00,52.01C122.00,51.19 114.75,44.00 113.92,44.00C113.69,44.00 113.18,43.64 112.57,43.04C111.06,41.57 110.34,41.00 109.94,41.00C109.74,40.99 109.29,40.77 108.93,40.50C108.57,40.22 108.12,40.00 107.93,40.00C107.74,39.99 107.29,39.77 106.93,39.50C106.57,39.22 106.12,39.00 105.93,39.00C105.74,38.99 105.29,38.77 104.93,38.50C104.57,38.22 104.12,38.00 103.93,38.00C103.74,37.99 103.29,37.77 102.93,37.50C102.41,37.10 102.10,37.00 101.43,37.00C100.75,36.99 100.45,36.89 99.93,36.50C99.43,36.12 99.10,36.00 98.52,36.00C97.98,36.00 97.59,35.88 97.14,35.56C95.89,34.70 96.00,30.39 96.00,80.94C96.00,126.11 96.00,126.33 96.33,126.67C96.79,127.13 97.18,127.09 97.92,126.50Z" fill="#1F4E79" fill-rule="evenodd"/></svg>